<?xml version="1.0" standalone="no"?>
<!DOCTYPE svg PUBLIC "-//W3C//DTD SVG 1.1//EN" "http://www.w3.org/Graphics/SVG/1.1/DTD/svg11.dtd">
<svg version="1.1" xmlns="http://www.w3.org/2000/svg" viewBox="0 0 96.40521768549934 96.40521768549911" width="96.40521768549934" height="96.40521768549911"><!-- svg-source:excalidraw --><metadata></metadata><defs><style class="style-fonts">
      </style></defs><g stroke-linecap="round" transform="translate(10 10) rotate(0 38.20260884274967 38.202608842749555)"><path d="M-1.8 -1.04 L74.42 -0.33 L77.46 75.93 L-1.91 74.76" stroke="none" stroke-width="0" fill="#ffec99"></path><path d="M0 0 C22.52 1.02, 47.12 -0.07, 76.41 0 M0 0 C27.99 -0.44, 54.61 0.52, 76.41 0 M76.41 0 C78.59 22.05, 78.63 41.57, 76.41 76.41 M76.41 0 C75.02 27.34, 75.98 56.05, 76.41 76.41 M76.41 76.41 C53.46 77.36, 32.35 78.42, 0 76.41 M76.41 76.41 C57.34 75.98, 40.09 75.69, 0 76.41 M0 76.41 C-1.46 55.35, 0.05 34.1, 0 0 M0 76.41 C0.7 56.72, 1.01 37.02, 0 0" stroke="#ffec99" stroke-width="2" fill="none"></path></g></svg>